
<svg xmlns="http://www.w3.org/2000/svg" width="64" height="64" fill="currentColor" viewBox="0 0 24 24">
  <path d="M7 18c-1.104 0-2 .896-2 2s.896 2 2 2c1.105 0 2-.896 2-2s-.895-2-2-2zm10 0c-1.104 0-2 .896-2 2s.896 2 2 2c1.105 0 2-.896 2-2s-.895-2-2-2zM7.333 14h9.567c.847 0 1.596-.522 1.884-1.299l3.215-8.601A1 1 0 0 0 21 3H5.21l-.94-2.34A1 1 0 0 0 3.333 0H1a1 1 0 1 0 0 2h1.333l3.6 9.004-1.348 3.245A1.995 1.995 0 0 0 5 15a2 2 0 0 0 2.333-1zm11.379-10-2.571 6.879a.5.5 0 0 1-.467.321H7.868L6.1 4h12.612z"/>
</svg>
